<?xml version="1.0" encoding="utf-8"?>
<!-- Generator: Adobe Illustrator 18.1.1, SVG Export Plug-In . SVG Version: 6.00 Build 0)  -->
<svg version="1.1" id="Layer_1" xmlns="http://www.w3.org/2000/svg" xmlns:xlink="http://www.w3.org/1999/xlink" x="0px" y="0px"
	 viewBox="-349 160 325 450" enable-background="new -349 160 325 450" xml:space="preserve">
<g>
	<polygon fill="#EFC725" points="-308.2,561.3 -335.2,257.6 -37.8,257.6 -64.9,561.2 -186.7,595 	"/>
	<polygon fill="#FBDE34" points="-186.8,568.8 -88.3,541.5 -65.2,282.1 -186.8,282.1 	"/>
	<polygon fill="#EBEBEB" points="-186.8,491.4 -187,491.5 -228.4,480.3 -231.1,450.6 -251.2,450.6 -268.5,450.6 -263.3,509 
		-187,530.2 -186.8,530.2 	"/>
	<polygon fill="#EBEBEB" points="-181.8,431.9 -181.8,394.7 -227.6,394.7 -222.3,336.3 -181.7,335.2 -181.8,296.5 -255.9,296.5 
		-258.7,323.9 -267.4,421.9 -268.3,431.9 -258.3,431.9 	"/>
	<polygon fill="#FFFFFF" points="-182,335.2 -181.9,335.2 -141.2,337.6 -137.8,376.1 -117.6,376.1 -100.4,376.1 -106.9,304.1 
		-181.9,296.4 -182,296.5 	"/>
	<polyline fill="#FFFFFF" points="-104.2,335.3 -107.4,296.5 -186,296.5 -186,320.6 -186,335.2 -186,335.3 -104.2,335.3 	"/>
	<polygon fill="#FFFFFF" points="-186.9,394.7 -186.9,432 -141.1,432 -145.4,480.2 -186.9,491.5 -186.9,530.2 -110.6,509 
		-110,502.8 -101.3,404.7 -100.4,394.7 -110.4,394.7 	"/>
	<path fill="#FFFFFF" d="M-109,333.7"/>
	<path fill="#FFFFFF" d="M-109.5,333.7"/>
</g>
</svg>
